<svg width="37" height="32" viewBox="0 0 37 32" fill="none" xmlns="http://www.w3.org/2000/svg">
<path fill-rule="evenodd" clip-rule="evenodd" d="M2.13171 15.6048C2.13171 23.8901 9.46756 30.6429 18.4994 30.6429V30.798C9.39677 30.798 1.97821 23.9892 1.97821 15.6048H2.13171Z" fill="#B5680B"/>
<path d="M18.4994 32C19.649 32 20.5809 31.4271 20.5809 30.7205C20.5809 30.0138 19.649 29.4409 18.4994 29.4409C17.3499 29.4409 16.418 30.0138 16.418 30.7205C16.418 31.4271 17.3499 32 18.4994 32Z" fill="#F89B1C"/>
<path d="M35.7068 10.5781C35.4535 9.76855 34.7858 9.23192 34.0566 9.23192H33.6406V3.49337C33.8889 3.34105 34.081 3.11085 34.1877 2.8379C34.2944 2.56495 34.3098 2.26422 34.2315 1.98162C34.1532 1.69901 33.9856 1.45003 33.7542 1.27267C33.5228 1.09531 33.2403 0.999306 32.9499 0.999306C32.6594 0.999306 32.377 1.09531 32.1456 1.27267C31.9142 1.45003 31.7466 1.69901 31.6683 1.98162C31.59 2.26422 31.6054 2.56495 31.7121 2.8379C31.8188 3.11085 32.0109 3.34105 32.2591 3.49337V9.23192H4.74123V3.49337C4.98995 3.34101 5.18249 3.1106 5.28947 2.83731C5.39644 2.56403 5.41198 2.26288 5.3337 1.97984C5.25541 1.6968 5.08761 1.44742 4.85591 1.26976C4.62421 1.09211 4.34134 0.995941 4.05048 0.995941C3.75962 0.995941 3.47675 1.09211 3.24505 1.26976C3.01335 1.44742 2.84555 1.6968 2.76727 1.97984C2.68898 2.26288 2.70451 2.56403 2.81149 2.83731C2.91846 3.1106 3.11101 3.34101 3.35973 3.49337V9.23192H2.94375C2.20695 9.23192 1.5469 9.76855 1.29363 10.5781C0.783839 12.2034 0.524968 13.8983 0.526127 15.6033V15.6234C0.526127 16.7494 1.32432 17.6521 2.28523 17.6521H34.7213C35.6822 17.6521 36.4773 16.7494 36.4789 15.6234V15.6033C36.4785 13.8981 36.2181 12.2032 35.7068 10.5781Z" fill="#B5680B"/>
<path d="M18.4994 28.394C26.3098 28.394 32.6414 22.6674 32.6414 15.6032C32.6414 8.53909 26.3098 2.81247 18.4994 2.81247C10.689 2.81247 4.35748 8.53909 4.35748 15.6032C4.35748 22.6674 10.689 28.394 18.4994 28.394Z" fill="#F89B1C"/>
<path d="M30.4924 15.6048C30.4924 16.737 29.7064 17.6536 28.7409 17.6536H8.25945C7.2924 17.6536 6.508 16.737 6.50647 15.6048C6.50647 13.5498 7.22945 11.5723 8.56951 9.8771C8.72036 9.67961 8.91346 9.51914 9.13435 9.40768C9.35524 9.29622 9.59821 9.23666 9.84509 9.23346H27.1537C27.4006 9.23666 27.6436 9.29622 27.8645 9.40768C28.0854 9.51914 28.2785 9.67961 28.4293 9.8771C29.7694 11.5661 30.4924 13.5498 30.4924 15.6048Z" fill="#FFCB8D"/>
<path fill-rule="evenodd" clip-rule="evenodd" d="M10.0953 13.4428C10.0953 13.3143 10.1984 13.2101 10.3256 13.2101H12.9566C13.0837 13.2101 13.1868 13.3143 13.1868 13.4428C13.1868 13.5713 13.0837 13.6754 12.9566 13.6754H10.3256C10.1984 13.6754 10.0953 13.5713 10.0953 13.4428Z" fill="#B5680B"/>
<path fill-rule="evenodd" clip-rule="evenodd" d="M23.812 13.4428C23.812 13.3143 23.9151 13.2101 24.0423 13.2101H26.6732C26.8004 13.2101 26.9035 13.3143 26.9035 13.4428C26.9035 13.5713 26.8004 13.6754 26.6732 13.6754H24.0423C23.9151 13.6754 23.812 13.5713 23.812 13.4428Z" fill="#B5680B"/>
<path fill-rule="evenodd" clip-rule="evenodd" d="M16.8093 21.8411C16.8992 21.7503 17.045 21.7503 17.1349 21.8411L18.3703 23.0893C18.3703 23.0893 18.3704 23.0894 18.3704 23.0894C18.4049 23.1241 18.4516 23.1435 18.5002 23.1435C18.5488 23.1435 18.5955 23.1241 18.63 23.0894C18.6301 23.0894 18.6301 23.0893 18.6302 23.0893L19.8655 21.8411C19.9554 21.7503 20.1012 21.7503 20.1911 21.8411C20.281 21.932 20.281 22.0793 20.1911 22.1701L18.9554 23.4186L18.9551 23.419C18.8343 23.5405 18.6707 23.6088 18.5002 23.6088C18.3297 23.6088 18.1662 23.5405 18.0453 23.419L18.045 23.4186L16.8093 22.1701C16.7194 22.0793 16.7194 21.932 16.8093 21.8411Z" fill="#B5680B"/>
</svg>
