<?xml version="1.0" encoding="UTF-8"?>
<svg version="1.1" xmlns="http://www.w3.org/2000/svg" width="732" height="341">
<path d="M0 0 C2.28394077 1.47512532 4.25201586 3.03461379 6.25390625 4.87109375 C7.07375 5.53818359 7.07375 5.53818359 7.91015625 6.21875 C11.09242439 9.25074436 11.60954357 12.05957603 11.75390625 16.24609375 C11.69458156 21.27386144 10.10474734 25.27887143 8.25390625 29.87109375 C7.77395075 31.13282912 7.29731226 32.39583194 6.82421875 33.66015625 C6.58872314 34.28470703 6.35322754 34.90925781 6.1105957 35.55273438 C3.44859309 42.62298489 0.86100266 49.71406504 -1.66015625 56.8359375 C-2.51191483 59.2165721 -3.39352848 61.5770547 -4.30859375 63.93359375 C-5.60090995 67.32410874 -6.63998607 70.77144649 -7.68359375 74.24609375 C-9.12907355 79.01508203 -10.76948493 83.60249649 -12.67578125 88.203125 C-14.44501698 92.61330019 -15.99294273 97.10174919 -17.57421875 101.58203125 C-18.53451382 104.27725942 -19.52964829 106.95165977 -20.55859375 109.62109375 C-21.8604914 112.60748995 -21.8604914 112.60748995 -21.74609375 114.87109375 C-20.18309389 115.95230152 -20.18309389 115.95230152 -18.18359375 116.99609375 C-10.13673757 121.87557037 -6.07918383 127.88376789 -3.74609375 136.87109375 C-3.35421875 137.94359375 -2.96234375 139.01609375 -2.55859375 140.12109375 C-0.53685377 149.45220134 -1.51591096 157.66420615 -4.67578125 166.60546875 C-5.51582895 169.16853398 -6.1371213 171.57113646 -6.68359375 174.19921875 C-7.69552811 178.91762235 -9.18088514 183.35626367 -10.87109375 187.87109375 C-11.17748779 188.69287109 -11.48388184 189.51464844 -11.79956055 190.36132812 C-14.99256753 198.75981604 -18.71202274 206.84710749 -22.74609375 214.87109375 C-23.14763672 215.67144043 -23.54917969 216.47178711 -23.96289062 217.29638672 C-29.78517033 228.81759275 -35.77983964 239.50342826 -44.390625 249.19921875 C-46.57248066 251.89038366 -48.12484561 254.81566457 -49.74609375 257.87109375 C-50.40609375 257.87109375 -51.06609375 257.87109375 -51.74609375 257.87109375 C-51.95234375 258.4125 -52.15859375 258.95390625 -52.37109375 259.51171875 C-54.28294044 262.79227387 -56.95107879 265.10953549 -59.74609375 267.62109375 C-60.29265625 268.12769531 -60.83921875 268.63429688 -61.40234375 269.15625 C-65.48767057 272.87109375 -65.48767057 272.87109375 -67.74609375 272.87109375 C-68.01421875 273.48984375 -68.28234375 274.10859375 -68.55859375 274.74609375 C-69.74609375 276.87109375 -69.74609375 276.87109375 -72.74609375 278.87109375 C-86.93815443 280.6068134 -102.09768207 276.46759829 -115.74609375 272.87109375 C-116.66100586 272.63261719 -117.57591797 272.39414062 -118.51855469 272.1484375 C-138.22423467 266.93550255 -156.32817824 259.60766011 -173.68359375 248.87109375 C-177.06835164 246.80966021 -180.47712441 245.00368087 -184.05859375 243.30859375 C-188.10215566 241.33062848 -190.62222769 239.14734352 -193.74609375 235.87109375 C-196.63407685 233.74007488 -199.56278553 231.68069772 -202.515625 229.640625 C-203.25167969 229.05667969 -203.98773438 228.47273437 -204.74609375 227.87109375 C-204.74609375 227.21109375 -204.74609375 226.55109375 -204.74609375 225.87109375 C-205.89078125 225.46890625 -205.89078125 225.46890625 -207.05859375 225.05859375 C-209.63597993 223.9197487 -211.01564239 223.05692704 -212.74609375 220.87109375 C-212.74609375 220.21109375 -212.74609375 219.55109375 -212.74609375 218.87109375 C-213.58140625 218.53078125 -213.58140625 218.53078125 -214.43359375 218.18359375 C-217.40768963 216.49559339 -219.4661824 214.40432858 -221.74609375 211.87109375 C-221.74609375 211.21109375 -221.74609375 210.55109375 -221.74609375 209.87109375 C-223.06609375 209.21109375 -224.38609375 208.55109375 -225.74609375 207.87109375 C-225.74609375 207.21109375 -225.74609375 206.55109375 -225.74609375 205.87109375 C-226.73609375 205.54109375 -227.72609375 205.21109375 -228.74609375 204.87109375 C-232.10518565 201.29474715 -235.88414398 196.97895236 -235.74609375 191.87109375 C-234.60450185 189.58790995 -233.55596692 187.68096692 -231.74609375 185.87109375 C-229.99200058 185.67357041 -228.23679734 185.48353329 -226.47851562 185.32763672 C-208.49612504 183.70922157 -191.30532425 180.4535261 -175.03515625 172.4453125 C-171.74609375 170.87109375 -171.74609375 170.87109375 -169.74609375 170.87109375 C-169.74609375 170.21109375 -169.74609375 169.55109375 -169.74609375 168.87109375 C-163.99609375 165.87109375 -163.99609375 165.87109375 -161.74609375 165.87109375 C-161.74609375 165.21109375 -161.74609375 164.55109375 -161.74609375 163.87109375 C-160.19609078 162.87945799 -158.60299422 161.95509895 -156.99609375 161.05859375 C-152.02733685 157.99891938 -148.20997976 154.58492605 -144.30859375 150.30859375 C-143.81327148 149.76678467 -143.31794922 149.22497559 -142.80761719 148.66674805 C-140.48000787 146.04759258 -138.4042363 143.42751471 -136.5234375 140.46875 C-135.93691406 139.61152344 -135.35039062 138.75429687 -134.74609375 137.87109375 C-134.08609375 137.87109375 -133.42609375 137.87109375 -132.74609375 137.87109375 C-132.37484375 136.91203125 -132.37484375 136.91203125 -131.99609375 135.93359375 C-130.3359518 131.86624597 -128.58751264 127.85992399 -126.74609375 123.87109375 C-126.47522949 123.27264648 -126.20436523 122.67419922 -125.92529297 122.05761719 C-119.77418841 108.58313476 -113.07331455 97.75393744 -98.74609375 91.87109375 C-94.51637643 90.71304093 -90.2926141 90.67951609 -85.93359375 90.68359375 C-84.87108398 90.68262695 -84.87108398 90.68262695 -83.78710938 90.68164062 C-78.77026476 90.73240906 -74.48852322 91.29028393 -69.74609375 92.87109375 C-69.58753906 92.32582031 -69.42898438 91.78054687 -69.265625 91.21875 C-67.42859194 85.28137795 -64.91051589 80.20199357 -61.74609375 74.87109375 C-60.59934534 72.91329612 -59.45356564 70.95493087 -58.30859375 68.99609375 C-57.71820313 67.98675781 -57.1278125 66.97742188 -56.51953125 65.9375 C-51.75113892 57.92786296 -51.75113892 57.92786296 -47.81933594 49.50170898 C-46.79328876 46.98677305 -45.62831904 44.68264161 -44.3125 42.30859375 C-43.83361328 41.43895996 -43.35472656 40.56932617 -42.86132812 39.67333984 C-42.34892578 38.74859863 -41.83652344 37.82385742 -41.30859375 36.87109375 C-38.02227855 30.9118955 -34.76209815 24.94615384 -31.6484375 18.89453125 C-31.15980225 17.94578125 -30.67116699 16.99703125 -30.16772461 16.01953125 C-29.23899059 14.20767853 -28.3163489 12.39268645 -27.40063477 10.57421875 C-21.72085216 -0.48840686 -12.51282334 -5.14396294 0 0 Z M-10.74609375 11.87109375 C-16.58299834 19.58414624 -20.68589699 28.65195704 -25.05859375 37.24609375 C-25.58308105 38.26292236 -25.58308105 38.26292236 -26.11816406 39.30029297 C-27.88001971 42.80057072 -29.22684983 45.97300169 -29.74609375 49.87109375 C-30.40609375 49.87109375 -31.06609375 49.87109375 -31.74609375 49.87109375 C-32.24238281 50.89847656 -32.73867188 51.92585938 -33.25 52.984375 C-36.39992228 59.43250629 -39.52173062 65.75437494 -43.49609375 71.74609375 C-46.19959944 75.82881453 -48.02327387 79.79025346 -49.703125 84.375 C-51.2638748 88.1102776 -53.39824858 91.43585081 -55.57421875 94.83984375 C-56.9126679 96.76898033 -56.9126679 96.76898033 -56.74609375 98.87109375 C-53.6496185 100.40796857 -50.54284093 101.92274657 -47.43359375 103.43359375 C-46.11198242 104.09004883 -46.11198242 104.09004883 -44.76367188 104.75976562 C-43.91611328 105.16904297 -43.06855469 105.57832031 -42.1953125 106 C-41.41502686 106.3822876 -40.63474121 106.7645752 -39.83081055 107.15844727 C-37.59573156 108.15769185 -37.59573156 108.15769185 -34.74609375 106.87109375 C-33.59538779 104.24005252 -32.63853693 101.71408064 -31.74609375 98.99609375 C-31.4819165 98.22249512 -31.21773926 97.44889648 -30.94555664 96.65185547 C-29.53593152 92.46701727 -28.27254314 88.27722051 -27.18359375 83.99609375 C-25.97078778 79.26615046 -24.09146673 75.0811324 -22 70.6796875 C-20.29567922 66.86222132 -19.05107983 62.94534761 -17.7734375 58.96875 C-15.57881745 52.35151161 -12.93228585 45.89452017 -10.38671875 39.40625 C-7.17481613 31.15921767 -4.67474051 23.69323797 -3.74609375 14.87109375 C-7.00006883 12.61224051 -7.00006883 12.61224051 -10.74609375 11.87109375 Z M-105.74609375 114.87109375 C-105.41609375 115.86109375 -105.08609375 116.85109375 -104.74609375 117.87109375 C-99.3830836 120.31737908 -94.59377443 121.3489794 -88.74609375 121.87109375 C-88.69195312 122.6290625 -88.6378125 123.38703125 -88.58203125 124.16796875 C-87.97810792 127.05298242 -87.97810792 127.05298242 -85.41015625 128.63671875 C-79.19006898 131.67480765 -73.97724791 133.55119032 -67.0234375 133.765625 C-64.74609375 133.87109375 -64.74609375 133.87109375 -61.74609375 134.87109375 C-61.49859375 135.63421875 -61.25109375 136.39734375 -60.99609375 137.18359375 C-58.83100273 141.83853945 -54.22220803 143.22529375 -49.74609375 145.18359375 C-46.66375227 146.09438841 -46.66375227 146.09438841 -43.18359375 145.24609375 C-39.74609375 144.87109375 -39.74609375 144.87109375 -37.12109375 146.49609375 C-34.66276042 148.95442708 -32.20442708 151.41276042 -29.74609375 153.87109375 C-26.61772739 155.95667132 -25.25986341 156.23502968 -21.62109375 156.55859375 C-20.73164063 156.64496094 -19.8421875 156.73132813 -18.92578125 156.8203125 C-18.20648438 156.83707031 -17.4871875 156.85382813 -16.74609375 156.87109375 C-15.04940243 155.17440243 -15.53399961 153.06466866 -15.49609375 150.74609375 C-15.60652497 142.18767418 -19.176916 136.14472597 -24.74609375 129.87109375 C-30.57499726 124.66228636 -37.68772982 122.3261148 -44.89306641 119.58105469 C-53.46289945 116.29764566 -61.77468954 112.50847543 -70.04833984 108.54931641 C-83.59757989 102.08070771 -95.68222423 103.50866042 -105.74609375 114.87109375 Z M-112.74609375 129.87109375 C-113.58723546 131.30403873 -114.41875062 132.7426378 -115.24609375 134.18359375 C-115.71015625 134.98410156 -116.17421875 135.78460938 -116.65234375 136.609375 C-117.96377261 138.90250555 -117.96377261 138.90250555 -117.74609375 141.87109375 C-112.86028521 145.19760169 -109.76958711 146.30247786 -103.859375 145.9140625 C-101.57819726 145.86767996 -99.87844691 146.05060134 -97.74609375 146.87109375 C-97.01529109 148.84855978 -96.35187628 150.85181864 -95.74609375 152.87109375 C-93.40601322 156.03020247 -90.38914297 157.50495029 -86.74609375 158.87109375 C-84.89280804 158.92824353 -83.03702027 158.92347862 -81.18359375 158.87109375 C-76.81310618 158.76435186 -74.08136314 158.74427869 -70.74609375 161.87109375 C-70.27171875 162.86109375 -69.79734375 163.85109375 -69.30859375 164.87109375 C-67.33189811 168.66634938 -65.70701868 169.39545505 -61.74609375 170.87109375 C-56.60398263 172.24232338 -51.93340803 171.62037248 -46.74609375 170.87109375 C-46.51921875 171.61359375 -46.29234375 172.35609375 -46.05859375 173.12109375 C-44.21596256 176.98184481 -41.93588795 179.05682154 -37.88671875 180.5625 C-33.43402454 181.79648308 -29.34943487 182.06289963 -24.74609375 181.87109375 C-24.21418834 180.43765375 -23.69594117 178.99914008 -23.18359375 177.55859375 C-22.89355469 176.75808594 -22.60351562 175.95757812 -22.3046875 175.1328125 C-21.4969375 172.72777635 -21.4969375 172.72777635 -22.74609375 169.87109375 C-25.24125776 169.05553819 -25.24125776 169.05553819 -28.24609375 168.55859375 C-34.63221448 167.13182604 -40.06591021 164.55127729 -44.74609375 159.87109375 C-46.43259885 159.5409425 -48.1202773 159.21571042 -49.81323242 158.92041016 C-56.10435705 157.81429476 -61.5641762 156.78632034 -66.74609375 152.87109375 C-67.29652344 152.05125 -67.84695313 151.23140625 -68.4140625 150.38671875 C-71.47403014 147.08584913 -74.63954379 146.46713283 -78.87109375 145.49609375 C-85.43164353 143.80318304 -90.15702282 141.68150462 -95.53515625 137.44140625 C-98.46800327 135.35835942 -101.40478368 134.46646574 -104.8359375 133.4921875 C-107.19840197 132.72402421 -108.85643892 131.4584038 -110.74609375 129.87109375 C-111.40609375 129.87109375 -112.06609375 129.87109375 -112.74609375 129.87109375 Z M-127.74609375 152.87109375 C-128.03484375 153.51046875 -128.32359375 154.14984375 -128.62109375 154.80859375 C-129.74609375 156.87109375 -129.74609375 156.87109375 -131.74609375 157.87109375 C-131.74609375 158.53109375 -131.74609375 159.19109375 -131.74609375 159.87109375 C-132.60460937 160.25201172 -132.60460937 160.25201172 -133.48046875 160.640625 C-136.01202689 162.01552296 -137.87223696 163.61427161 -139.99609375 165.55859375 C-140.7953125 166.2753125 -141.59453125 166.99203125 -142.41796875 167.73046875 C-143.80640604 169.00708559 -145.17801926 170.30301926 -146.51171875 171.63671875 C-155.99770486 180.78086752 -169.59557217 186.25001772 -181.74609375 190.87109375 C-182.81859375 191.30164063 -183.89109375 191.7321875 -184.99609375 192.17578125 C-194.10889242 195.67592437 -203.13786787 197.44032888 -212.74609375 198.87109375 C-212.74609375 199.53109375 -212.74609375 200.19109375 -212.74609375 200.87109375 C-212.08609375 200.87109375 -211.42609375 200.87109375 -210.74609375 200.87109375 C-210.41609375 201.86109375 -210.08609375 202.85109375 -209.74609375 203.87109375 C-209.08609375 203.87109375 -208.42609375 203.87109375 -207.74609375 203.87109375 C-207.53984375 204.42796875 -207.33359375 204.98484375 -207.12109375 205.55859375 C-205.16926343 208.84121746 -202.80378381 210.57782621 -199.74609375 212.87109375 C-199.08609375 212.87109375 -198.42609375 212.87109375 -197.74609375 212.87109375 C-197.74609375 213.53109375 -197.74609375 214.19109375 -197.74609375 214.87109375 C-196.25096211 216.12303577 -196.25096211 216.12303577 -194.37109375 217.30859375 C-191.66018506 219.0879762 -190.61813354 220.06303406 -188.74609375 222.87109375 C-186.40908261 225.00598135 -186.40908261 225.00598135 -182.74609375 225.87109375 C-168.24196747 224.19085542 -156.12179552 217.05890058 -143.83349609 209.73046875 C-138.96676937 206.87109375 -138.96676937 206.87109375 -136.74609375 206.87109375 C-136.74609375 208.19109375 -136.74609375 209.51109375 -136.74609375 210.87109375 C-137.40609375 210.87109375 -138.06609375 210.87109375 -138.74609375 210.87109375 C-139.29652344 211.89203125 -139.84695313 212.91296875 -140.4140625 213.96484375 C-142.600943 217.78683798 -145.17807641 221.05366371 -148.05859375 224.37109375 C-148.53917236 224.93352783 -149.01975098 225.49596191 -149.51489258 226.07543945 C-152.20738659 229.19721738 -154.97769977 232.18112145 -157.93359375 235.05859375 C-158.86171875 235.98671875 -159.78984375 236.91484375 -160.74609375 237.87109375 C-160.74609375 238.53109375 -160.74609375 239.19109375 -160.74609375 239.87109375 C-154.71374336 242.98352985 -148.64501093 246.00553168 -142.43359375 248.74609375 C-141.50933594 249.15601563 -140.58507812 249.5659375 -139.6328125 249.98828125 C-132.52024775 252.16343637 -126.66289971 250.22065173 -119.93359375 247.80859375 C-119.04502686 247.49349854 -118.15645996 247.17840332 -117.2409668 246.85375977 C-110.5936073 244.3970871 -105.27300962 241.30906337 -99.74609375 236.87109375 C-98.14984509 235.8379231 -96.54571151 234.81682375 -94.93359375 233.80859375 C-91.11664528 231.28620473 -88.60579844 228.46405605 -85.74609375 224.87109375 C-83.7344448 223.04600902 -81.66882407 221.29606442 -79.59765625 219.5390625 C-77.56952515 217.80415833 -77.56952515 217.80415833 -75.55859375 215.12109375 C-73.54706153 212.62401928 -71.56350988 211.35806337 -68.74609375 209.87109375 C-69.19984375 211.06734375 -69.65359375 212.26359375 -70.12109375 213.49609375 C-71.41026743 216.92981702 -72.61228426 220.38244918 -73.74609375 223.87109375 C-74.40609375 223.87109375 -75.06609375 223.87109375 -75.74609375 223.87109375 C-76.75118176 225.65991111 -77.75002111 227.45224071 -78.74609375 229.24609375 C-79.30296875 230.24382812 -79.85984375 231.2415625 -80.43359375 232.26953125 C-81.89623643 234.68304884 -81.89623643 234.68304884 -81.74609375 236.87109375 C-82.40609375 236.87109375 -83.06609375 236.87109375 -83.74609375 236.87109375 C-84.95488371 238.49098863 -84.95488371 238.49098863 -86.18359375 240.62109375 C-89.30803867 245.50546174 -92.99326236 249.60118386 -96.96264648 253.79589844 C-99.12268405 256.08125983 -100.99524024 258.24481349 -102.74609375 260.87109375 C-98.81751543 262.62783538 -95.12409609 263.43972142 -90.87109375 264.05859375 C-89.69804687 264.23777344 -88.525 264.41695313 -87.31640625 264.6015625 C-81.97452504 265.00483362 -78.09520704 264.78849079 -73.62109375 261.74609375 C-70.95626205 259.30038614 -68.97446496 256.5385703 -66.953125 253.5546875 C-65.15663005 251.0488968 -62.94927124 249.02181463 -60.74609375 246.87109375 C-51.03468581 236.62718247 -51.03468581 236.62718247 -45.74609375 223.87109375 C-45.08609375 223.87109375 -44.42609375 223.87109375 -43.74609375 223.87109375 C-43.09253906 222.54658203 -43.09253906 222.54658203 -42.42578125 221.1953125 C-39.03982717 214.36415252 -35.57247112 207.61686686 -31.8125 200.98046875 C-30.59570189 198.96755151 -30.59570189 198.96755151 -30.74609375 196.87109375 C-31.73609375 196.59136719 -32.72609375 196.31164062 -33.74609375 196.0234375 C-45.75967888 192.43717904 -45.75967888 192.43717904 -49.80859375 188.18359375 C-54.04582279 183.86218135 -58.7400933 183.74823571 -64.57421875 183.2578125 C-67.54415612 182.89571422 -69.17219005 182.26624067 -71.74609375 180.87109375 C-72.73609375 180.87109375 -73.72609375 180.87109375 -74.74609375 180.87109375 C-74.74609375 180.21109375 -74.74609375 179.55109375 -74.74609375 178.87109375 C-78.62916152 174.27633832 -82.52143165 172.35073684 -88.34375 171.35546875 C-96.12060982 169.78745149 -103.26787869 166.58841635 -107.74609375 159.87109375 C-109.8960166 159.21617755 -109.8960166 159.21617755 -112.37109375 158.93359375 C-117.4039131 158.0729087 -121.33145288 156.37055954 -125.74609375 153.87109375 C-126.73609375 153.37609375 -126.73609375 153.37609375 -127.74609375 152.87109375 Z " fill="#FB812B" transform="translate(494.74609375,32.12890625)"/>
<path d="M0 0 C1.36125 1.0209375 1.36125 1.0209375 2.75 2.0625 C4.0184375 2.92875 4.0184375 2.92875 5.3125 3.8125 C11.88021796 9.87500889 14.99898722 17.67281608 15.71484375 26.4453125 C15.82669812 34.77224899 12.83447212 42.66958067 7.25 48.8125 C6.425 49.555 5.6 50.2975 4.75 51.0625 C4.151875 51.76375 3.55375 52.465 2.9375 53.1875 C-4.16553913 59.27581926 -14.36169378 59.69581912 -23.25 59.0625 C-28.22793079 58.018084 -32.74604368 56.4168408 -37.25 54.0625 C-37.25 53.4025 -37.25 52.7425 -37.25 52.0625 C-38.11625 51.7840625 -38.11625 51.7840625 -39 51.5 C-42.25221206 49.42219785 -43.55559615 46.40929769 -45.25 43.0625 C-46.0853125 41.515625 -46.0853125 41.515625 -46.9375 39.9375 C-50.42441646 32.29949252 -50.1231676 23.86109777 -47.25 16.0625 C-44.42449874 9.15326644 -41.40338635 4.35987654 -35.25 0.0625 C-34.0434375 -0.80375 -34.0434375 -0.80375 -32.8125 -1.6875 C-21.93816378 -6.99205425 -10.26276949 -6.11818951 0 0 Z M-31.625 16.5 C-34.7495744 21.42721348 -35.93753668 25.16932845 -35.25 31.0625 C-32.86104427 37.12204007 -30.02827914 41.04774566 -24.25 44.0625 C-19.05203613 45.79515462 -14.7092454 45.50769351 -9.5625 43.9375 C-4.77934217 41.23005217 -2.19407026 38.07937738 0.125 33.125 C1.39264625 26.91353338 -0.42040324 22.16380363 -3.1171875 16.6640625 C-4.24417864 14.73560184 -4.24417864 14.73560184 -7.25 14.0625 C-7.25 13.4025 -7.25 12.7425 -7.25 12.0625 C-16.52540441 8.35233824 -24.59037217 9.28025038 -31.625 16.5 Z " fill="#FB812B" transform="translate(308.25,134.9375)"/>
<path d="M0 0 C5.77153004 4.78937674 9.488793 9.91116239 10.3515625 17.359375 C10.7005143 25.37469211 9.1179463 30.45685756 4.04296875 36.6953125 C0.03544422 40.84656681 -3.11378828 43.50957301 -9.06640625 43.8984375 C-23.12757561 44.0794826 -23.12757561 44.0794826 -29.64453125 38.3203125 C-35.12093861 32.10385009 -37.10722215 28.79172884 -37.20703125 20.3828125 C-37.2328125 19.08730469 -37.25859375 17.79179688 -37.28515625 16.45703125 C-36.71051663 9.86919849 -33.81682918 5.99001765 -28.95703125 1.6953125 C-20.33611007 -4.63842551 -9.32671931 -5.94599591 0 0 Z M-19.95703125 12.7578125 C-22.15273504 15.98275245 -22.87609696 17.81046653 -22.95703125 21.6953125 C-22.1960715 25.33100909 -21.33817685 26.41399075 -18.33203125 28.6328125 C-13.95144789 30.01188504 -11.11513337 29.52707555 -6.95703125 27.6953125 C-4.70239876 26.2724861 -4.70239876 26.2724861 -3.95703125 23.6953125 C-3.86614805 19.83627204 -3.86763039 16.15338255 -6.23828125 12.98046875 C-10.57086429 9.74087825 -15.64407434 9.79265463 -19.95703125 12.7578125 Z " fill="#FB812A" transform="translate(262.95703125,78.3046875)"/>
<path d="M0 0 C3.79598246 2.94035851 6.31497747 5.40889812 7.12109375 10.25390625 C7.23811892 15.15224563 5.81335909 17.88250448 2.87109375 21.75390625 C-0.08883756 24.2338487 -1.77357963 24.71583554 -5.62890625 25.12890625 C-9.40493609 24.72433162 -11.12912725 24.02400928 -14.12890625 21.75390625 C-14.87140625 21.21765625 -15.61390625 20.68140625 -16.37890625 20.12890625 C-18.94817287 16.64204441 -19.16824201 13.02576965 -19.12890625 8.75390625 C-18.79890625 7.76390625 -18.46890625 6.77390625 -18.12890625 5.75390625 C-17.46890625 5.75390625 -16.80890625 5.75390625 -16.12890625 5.75390625 C-15.46890625 4.43390625 -14.80890625 3.11390625 -14.12890625 1.75390625 C-13.46890625 1.75390625 -12.80890625 1.75390625 -12.12890625 1.75390625 C-12.12890625 1.09390625 -12.12890625 0.43390625 -12.12890625 -0.24609375 C-7.78395368 -1.58300223 -4.10339358 -2.40180285 0 0 Z " fill="#FA832E" transform="translate(305.12890625,92.24609375)"/>
<path d="M0 0 C1.32 0 2.64 0 4 0 C4 0.66 4 1.32 4 2 C5.98 2 7.96 2 10 2 C10.33 2.66 10.66 3.32 11 4 C11.99 4.33 12.98 4.66 14 5 C14 5.66 14 6.32 14 7 C16.31 7.33 18.62 7.66 21 8 C20.34 9.65 19.68 11.3 19 13 C18.34 13 17.68 13 17 13 C17 13.66 17 14.32 17 15 C16.34 15 15.68 15 15 15 C15 15.66 15 16.32 15 17 C13.68 17 12.36 17 11 17 C11 16.34 11 15.68 11 15 C8.69 14.67 6.38 14.34 4 14 C3.67 12.68 3.34 11.36 3 10 C1.68 10 0.36 10 -1 10 C-1.9765625 3.9453125 -1.9765625 3.9453125 -2 2 C-1.34 1.34 -0.68 0.68 0 0 Z " fill="#FC7F26" transform="translate(333,274)"/>
<path d="M0 0 C-0.46588495 5.70709064 -1.93757784 9.15939723 -5 14 C-5.66 14 -6.32 14 -7 14 C-7.2475 14.845625 -7.495 15.69125 -7.75 16.5625 C-9.13973627 20.38427474 -10.91120838 23.51868063 -13 27 C-13.66 27 -14.32 27 -15 27 C-15.66 28.32 -16.32 29.64 -17 31 C-16.125 26.25 -16.125 26.25 -15 24 C-14.34 24 -13.68 24 -13 24 C-13.2475 23.484375 -13.495 22.96875 -13.75 22.4375 C-14.15027964 18.53477349 -12.06779228 16.25833935 -10 13 C-12.99282227 14.83218973 -12.99282227 14.83218973 -15 17.125 C-17 19 -17 19 -20 19 C-20.33 19.99 -20.66 20.98 -21 22 C-21.99 21.67 -22.98 21.34 -24 21 C-23.34 21 -22.68 21 -22 21 C-21.67 20.01 -21.34 19.02 -21 18 C-19.43359375 16.4921875 -19.43359375 16.4921875 -17.4375 14.875 C-13.46972155 11.52807897 -10.11631742 7.87135987 -6.76171875 3.91796875 C-4.7141533 1.68880104 -3.15582874 0 0 0 Z " fill="#F9822F" transform="translate(426,242)"/>
<path d="M0 0 C1.32 0.33 2.64 0.66 4 1 C4 1.66 4 2.32 4 3 C5.65 3.33 7.3 3.66 9 4 C9 5.32 9 6.64 9 8 C10.65 8 12.3 8 14 8 C14 8.66 14 9.32 14 10 C13.0925 10.28875 12.185 10.5775 11.25 10.875 C8.11851097 11.81495746 8.11851097 11.81495746 6.0625 13.25 C2.70671031 14.47028716 0.22919641 13.21856468 -3 12 C-3.33 11.34 -3.66 10.68 -4 10 C-7.02934491 9.34227572 -7.02934491 9.34227572 -10 9 C-10 8.01 -10 7.02 -10 6 C-7.69 6 -5.38 6 -3 6 C-2.01 4.02 -1.02 2.04 0 0 Z " fill="#FC7F26" transform="translate(401,156)"/>
<path d="M0 0 C1.65 0 3.3 0 5 0 C5 1.32 5 2.64 5 4 C4.34 4 3.68 4 3 4 C3.04125 4.9075 3.0825 5.815 3.125 6.75 C3.00468444 9.8782046 2.6085292 11.38614006 1 14 C0.01 14 -0.98 14 -2 14 C-2 13.34 -2 12.68 -2 12 C-2.66 12 -3.32 12 -4 12 C-4 13.32 -4 14.64 -4 16 C-8 16 -8 16 -9.6875 14.8125 C-11.35320958 12.51223439 -11.7881623 10.82450272 -12 8 C-10 5 -10 5 -7.87109375 4.375 C-6.2461541 4.12460802 -4.62115382 3.87460923 -2.99609375 3.625 C-2.33738281 3.41875 -1.67867188 3.2125 -1 3 C-0.67 2.01 -0.34 1.02 0 0 Z " fill="#FC7E26" transform="translate(374,160)"/>
<path d="M0 0 C2.97 0.495 2.97 0.495 6 1 C6 1.66 6 2.32 6 3 C7.32 3.33 8.64 3.66 10 4 C10 6.64 10 9.28 10 12 C9.01 12.33 8.02 12.66 7 13 C6.67 13.99 6.34 14.98 6 16 C4 15 4 15 1.125 13.0625 C-1.22916376 11.50875192 -3.45052702 10.17667984 -6 9 C-5.67 8.38125 -5.34 7.7625 -5 7.125 C-3.85806765 5.08981656 -3.85806765 5.08981656 -4 3 C-3.01 3 -2.02 3 -1 3 C-0.67 2.01 -0.34 1.02 0 0 Z " fill="#FC7E26" transform="translate(254,77)"/>
<path d="M0 0 C2.28394077 1.47512532 4.25201586 3.03461379 6.25390625 4.87109375 C6.80046875 5.31582031 7.34703125 5.76054688 7.91015625 6.21875 C11.12932282 9.28590037 11.58742814 12.08015069 11.69140625 16.30859375 C11.48938899 20.78970395 10.75320198 24.65432451 9.25390625 28.87109375 C8.92390625 28.87109375 8.59390625 28.87109375 8.25390625 28.87109375 C8.15625 22.71875 8.15625 22.71875 8.25390625 20.87109375 C8.74890625 20.37609375 8.74890625 20.37609375 9.25390625 19.87109375 C9.32596136 18.18500409 9.33776693 16.49608716 9.31640625 14.80859375 C9.30738281 13.88949219 9.29835938 12.97039063 9.2890625 12.0234375 C9.27746094 11.31316406 9.26585937 10.60289063 9.25390625 9.87109375 C8.29484375 9.71640625 8.29484375 9.71640625 7.31640625 9.55859375 C6.63578125 9.33171875 5.95515625 9.10484375 5.25390625 8.87109375 C4.92390625 7.88109375 4.59390625 6.89109375 4.25390625 5.87109375 C-2.18894654 0.65545102 -9.81767024 1.07517158 -17.74609375 0.87109375 C-17.74609375 1.53109375 -17.74609375 2.19109375 -17.74609375 2.87109375 C-19.06609375 3.20109375 -20.38609375 3.53109375 -21.74609375 3.87109375 C-21.74609375 4.86109375 -21.74609375 5.85109375 -21.74609375 6.87109375 C-22.73609375 7.20109375 -23.72609375 7.53109375 -24.74609375 7.87109375 C-23.56801323 4.51809535 -22.55202763 2.11584085 -19.74609375 -0.12890625 C-13.60112413 -2.17722946 -6.03564261 -2.48122434 0 0 Z " fill="#EC8E4A" transform="translate(494.74609375,32.12890625)"/>
<path d="M0 0 C-0.33 1.32 -0.66 2.64 -1 4 C-1.66 4 -2.32 4 -3 4 C-3.16822266 4.87398437 -3.16822266 4.87398437 -3.33984375 5.765625 C-4.06000876 8.20310657 -5.04379395 9.7250586 -6.5625 11.75 C-7.24505859 12.67039063 -7.24505859 12.67039063 -7.94140625 13.609375 C-8.29074219 14.06828125 -8.64007813 14.5271875 -9 15 C-10.32 13.35 -11.64 11.7 -13 10 C-12.34 10 -11.68 10 -11 10 C-11.66 8.35 -12.32 6.7 -13 5 C-11.40377344 3.96679519 -9.79770894 2.94877571 -8.1875 1.9375 C-7.29417969 1.36902344 -6.40085937 0.80054688 -5.48046875 0.21484375 C-3 -1 -3 -1 0 0 Z " fill="#F78534" transform="translate(359,239)"/>
<path d="M0 0 C1.16734832 3.50204496 0.80983669 4.19824347 -0.4765625 7.53515625 C-0.81816406 8.42783203 -1.15976562 9.32050781 -1.51171875 10.24023438 C-1.87910156 11.17158203 -2.24648438 12.10292969 -2.625 13.0625 C-2.96917969 13.96677734 -3.31335938 14.87105469 -3.66796875 15.80273438 C-6.09299329 22.06216119 -8.89755382 28.04894414 -12 34 C-12.33 34 -12.66 34 -13 34 C-13 32.02 -13 30.04 -13 28 C-12.34 28 -11.68 28 -11 28 C-11.185625 27.443125 -11.37125 26.88625 -11.5625 26.3125 C-12.07551165 23.600867 -11.6640724 21.65628961 -11 19 C-10.34 19 -9.68 19 -9 19 C-8.566875 17.7934375 -8.566875 17.7934375 -8.125 16.5625 C-7 14 -7 14 -5 13 C-4.61004898 11.13507598 -4.61004898 11.13507598 -4.5 9 C-4.34375 6.8125 -4.34375 6.8125 -4 5 C-3.34 4.67 -2.68 4.34 -2 4 C-0.86649466 1.98330173 -0.86649466 1.98330173 0 0 Z " fill="#F5883D" transform="translate(487,206)"/>
<path d="M0 0 C2.97 0.33 5.94 0.66 9 1 C9 1.99 9 2.98 9 4 C10.32 4 11.64 4 13 4 C13 4.66 13 5.32 13 6 C20.44284678 6.62020813 20.44284678 6.62020813 27.1875 4 C27.785625 3.34 28.38375 2.68 29 2 C29 5.99904969 27.27413033 7.80200422 25 11 C25.99 11.33 26.98 11.66 28 12 C28 12.66 28 13.32 28 14 C25.83613465 13.02999139 24.22795499 12.24984898 22.6171875 10.484375 C20.68270618 8.70876413 19.50560087 8.47731121 16.9375 8.0625 C11.7347135 7.03900102 6.69732201 5.49517483 2 3 C1.34 2.01 0.68 1.02 0 0 Z " fill="#F1904D" transform="translate(392,197)"/>
<path d="M0 0 C3.9261574 5.8892361 4.5105913 12.51157806 3.61328125 19.44140625 C2.1653949 25.48195122 -0.96921835 31.27945892 -5 36 C-5.66 36 -6.32 36 -7 36 C-7 34.35 -7 32.7 -7 31 C-6.34 30.67 -5.68 30.34 -5 30 C-4.67 29.01 -4.34 28.02 -4 27 C-3.34 27 -2.68 27 -2 27 C-1.814375 26.1028125 -1.814375 26.1028125 -1.625 25.1875 C-1 23 -1 23 1 20 C1.45915507 17.03157342 1.45915507 17.03157342 1.625 13.8125 C1.69976562 12.72582031 1.77453125 11.63914063 1.8515625 10.51953125 C1.90054687 9.68808594 1.94953125 8.85664063 2 8 C1.34 8 0.68 8 0 8 C0 5.36 0 2.72 0 0 Z " fill="#F29452" transform="translate(320,149)"/>
<path d="M0 0 C-3.61905407 1.80952703 -7.90000199 0.54717813 -11.8359375 0.15625 C-14.60094869 0.01970624 -16.39047295 0.25795439 -19 1 C-19.33 0.67 -19.66 0.34 -20 0 C-24.17920011 1.10631083 -24.17920011 1.10631083 -27.5625 3.625 C-29 5 -29 5 -31.6875 5.1875 C-32.450625 5.125625 -33.21375 5.06375 -34 5 C-34 4.34 -34 3.68 -34 3 C-22.97380024 -3.89137485 -12.14571299 -4.92869513 0 0 Z " fill="#EC9B5B" transform="translate(305,133)"/>
<path d="M0 0 C2.97 0.495 2.97 0.495 6 1 C6.33 2.32 6.66 3.64 7 5 C7.78375 5.0825 8.5675 5.165 9.375 5.25 C12 6 12 6 13.125 8 C13.41375 8.66 13.7025 9.32 14 10 C14.99 10.33 15.98 10.66 17 11 C17.33 11.66 17.66 12.32 18 13 C19.2375 13.680625 19.2375 13.680625 20.5 14.375 C23 16 23 16 23.65625 18.1015625 C23.7696875 18.72804688 23.883125 19.35453125 24 20 C23.49210937 19.61328125 22.98421875 19.2265625 22.4609375 18.828125 C19.1991155 16.36037951 15.95952226 13.93496143 12.5 11.75 C11.675 11.1725 10.85 10.595 10 10 C10 9.34 10 8.68 10 8 C8.8553125 7.5978125 8.8553125 7.5978125 7.6875 7.1875 C5.11011382 6.04865495 3.73045136 5.18583329 2 3 C2 2.34 2 1.68 2 1 C1.34 0.67 0.68 0.34 0 0 Z " fill="#F18E4B" transform="translate(280,250)"/>
<path d="M0 0 C1.43088528 2.86177057 0.59991697 4.93375773 0 8 C-0.66 8 -1.32 8 -2 8 C-1.938125 8.886875 -1.87625 9.77375 -1.8125 10.6875 C-2.0238801 14.42188173 -3.11301323 15.85502204 -5 19 C-4.938125 20.423125 -4.938125 20.423125 -4.875 21.875 C-5.05176907 26.29422681 -7.24859726 28.67866384 -10 32 C-10.66 31.67 -11.32 31.34 -12 31 C-11.62488281 30.00742188 -11.24976563 29.01484375 -10.86328125 27.9921875 C-10.34606246 26.61990158 -9.82915875 25.24749687 -9.3125 23.875 C-9.04284424 23.15884521 -8.77318848 22.44269043 -8.49536133 21.70483398 C-6.24212094 15.69685469 -4.09132137 9.65696457 -1.98046875 3.59765625 C-1 1 -1 1 0 0 Z " fill="#EE995A" transform="translate(481,79)"/>
<path d="M0 0 C3.45894228 0.30598678 6.917015 0.62089228 10.375 0.9375 C11.85226562 1.06801758 11.85226562 1.06801758 13.359375 1.20117188 C14.30039062 1.28818359 15.24140625 1.37519531 16.2109375 1.46484375 C17.51490479 1.58267212 17.51490479 1.58267212 18.84521484 1.70288086 C21 2 21 2 23 3 C25.71262116 3.2322646 28.40773126 3.41936235 31.125 3.5625 C32.25615234 3.62727539 32.25615234 3.62727539 33.41015625 3.69335938 C35.27321888 3.7994832 37.13658524 3.90025001 39 4 C38.67 4.66 38.34 5.32 38 6 C25.00567359 6.48627417 12.49451934 4.4900892 0 1 C0 0.67 0 0.34 0 0 Z " fill="#F09658" transform="translate(384,305)"/>
<path d="M0 0 C0 0.99 0 1.98 0 3 C0.99 3 1.98 3 3 3 C3 3.66 3 4.32 3 5 C0.525 4.505 0.525 4.505 -2 4 C-2 3.34 -2 2.68 -2 2 C-11.11991174 0.17601765 -16.82777851 0.76255182 -25 5 C-25 4.01 -25 3.02 -25 2 C-17.12272955 -3.60161454 -8.90069437 -3.16469133 0 0 Z " fill="#EE9354" transform="translate(303,145)"/>
<path d="M0 0 C0.66 0 1.32 0 2 0 C1.43885269 4.16745403 0.06235255 6.74472661 -2.3125 10.1875 C-5.28827467 14.6816515 -7.40459605 19.02042487 -9.17578125 24.1015625 C-10 26 -10 26 -12 27 C-11.45276317 23.62537285 -10.9451 21.91765 -9 19 C-8.40678131 17.11966003 -7.86904181 15.22129792 -7.375 13.3125 C-6.98441406 11.82169922 -6.98441406 11.82169922 -6.5859375 10.30078125 C-6.39257812 9.54152344 -6.19921875 8.78226563 -6 8 C-5.34 8 -4.68 8 -4 8 C-3.34 6.68 -2.68 5.36 -2 4 C-1.34 4 -0.68 4 0 4 C0 2.68 0 1.36 0 0 Z " fill="#F3924B" transform="translate(455,93)"/>
<path d="M0 0 C0.93065133 2.60582371 1.14917407 3.64198224 0.0625 6.25 C-0.4634375 7.11625 -0.4634375 7.11625 -1 8 C-1.66 7.34 -2.32 6.68 -3 6 C-3.391875 6.721875 -3.78375 7.44375 -4.1875 8.1875 C-7.31123982 13.03468248 -11.4645453 16.50122066 -16 20 C-16.66 19.67 -17.32 19.34 -18 19 C-17.29875 18.505 -16.5975 18.01 -15.875 17.5 C-12.77357418 14.80310798 -10.65727434 11.97146791 -8.33203125 8.609375 C-7.89246094 8.07828125 -7.45289063 7.5471875 -7 7 C-6.34 7 -5.68 7 -5 7 C-4.731875 6.401875 -4.46375 5.80375 -4.1875 5.1875 C-3.01506533 3.02775192 -1.80630718 1.64209744 0 0 Z " fill="#EC995F" transform="translate(436,276)"/>
<path d="M0 0 C-2 2 -2 2 -5.2578125 2.1953125 C-6.53398437 2.17210937 -7.81015625 2.14890625 -9.125 2.125 C-11.04699219 2.09792969 -11.04699219 2.09792969 -13.0078125 2.0703125 C-14.48894531 2.03550781 -14.48894531 2.03550781 -16 2 C-16 2.66 -16 3.32 -16 4 C-16.99 4 -17.98 4 -19 4 C-19.25048636 6.87450983 -19.25048636 6.87450983 -19 10 C-18.01979625 11.0194119 -17.02196992 12.02246356 -16 13 C-16.3125 15.1875 -16.3125 15.1875 -17 17 C-19.854498 13.77717967 -21.88989197 11.40432111 -22 7 C-20.8584081 4.7168162 -19.80987317 2.80987317 -18 1 C-15.92180264 0.76224013 -13.83655612 0.58486887 -11.75 0.4375 C-10.04070312 0.31181641 -10.04070312 0.31181641 -8.296875 0.18359375 C-5.52033379 0.02897593 -2.77949497 -0.0365723 0 0 Z " fill="#E78B48" transform="translate(281,217)"/>
<path d="M0 0 C0.66 0 1.32 0 2 0 C1.34744279 7.30864074 -0.49576928 13.53065098 -4 20 C-4.33 20 -4.66 20 -5 20 C-5 11.58778799 -4.28483645 7.18746759 0 0 Z " fill="#F28F46" transform="translate(487,97)"/>
<path d="M0 0 C-0.46588495 5.70709064 -1.93757784 9.15939723 -5 14 C-5.66 14 -6.32 14 -7 14 C-7 12.68 -7 11.36 -7 10 C-6.34 10 -5.68 10 -5 10 C-5 9.01 -5 8.02 -5 7 C-6.32 7.33 -7.64 7.66 -9 8 C-3.95652174 0 -3.95652174 0 0 0 Z " fill="#EF974F" transform="translate(426,242)"/>
<path d="M0 0 C5.96674531 1.77272868 11.35274695 4.06124002 16.8359375 7.01171875 C19.05830914 8.20770525 19.05830914 8.20770525 22 8 C22 8.99 22 9.98 22 11 C19.36 10.67 16.72 10.34 14 10 C14 9.34 14 8.68 14 8 C12.68 8 11.36 8 10 8 C10 7.34 10 6.68 10 6 C7.69 5.34 5.38 4.68 3 4 C3 3.34 3 2.68 3 2 C2.01 1.67 1.02 1.34 0 1 C0 0.67 0 0.34 0 0 Z " fill="#F18B45" transform="translate(438,131)"/>
<path d="M0 0 C0.64066406 0.22816406 1.28132813 0.45632812 1.94140625 0.69140625 C7.75024913 2.63850721 7.75024913 2.63850721 13.8125 2.375 C14.864375 2.25125 15.91625 2.1275 17 2 C19.9375 4.4375 19.9375 4.4375 22 7 C20.329375 6.4740625 20.329375 6.4740625 18.625 5.9375 C15.19735524 4.62760669 15.19735524 4.62760669 13 6 C10.3276379 6.13415472 7.67749512 6.04318541 5 6 C4.67 5.01 4.34 4.02 4 3 C1.98491642 2.26676204 1.98491642 2.26676204 0 2 C0 1.34 0 0.68 0 0 Z " fill="#F09F5E" transform="translate(438,174)"/>
<path d="M0 0 C3.42771351 2.98062044 3.88413837 5.38016533 4.203125 9.83984375 C4.21859375 10.86207031 4.2340625 11.88429688 4.25 12.9375 C4.28867187 14.46697266 4.28867187 14.46697266 4.328125 16.02734375 C3.95563103 19.40196174 2.98645448 21.27614954 1 24 C0.67 24 0.34 24 0 24 C0 22.35 0 20.7 0 19 C0.33 19 0.66 19 1 19 C1.33 14.38 1.66 9.76 2 5 C1.01 5.33 0.02 5.66 -1 6 C-0.67 4.02 -0.34 2.04 0 0 Z " fill="#EF8E46" transform="translate(269,86)"/>
<path d="M0 0 C2.66666667 0 5.33333333 0 8 0 C7 2 7 2 5 5 C4.67 5.66 4.34 6.32 4 7 C3.34 7 2.68 7 2 7 C2 7.66 2 8.32 2 9 C1.01 8.67 0.02 8.34 -1 8 C-0.34 6.68 0.32 5.36 1 4 C0.01 4.66 -0.98 5.32 -2 6 C-2.99 6 -3.98 6 -5 6 C-5 5.34 -5 4.68 -5 4 C-4.01 3.67 -3.02 3.34 -2 3 C-1.34 2.01 -0.68 1.02 0 0 Z " fill="#FD7D21" transform="translate(439,282)"/>
<path d="M0 0 C0.99 0 1.98 0 3 0 C2.32902328 4.19360449 0.1441606 7.40334352 -2 11 C1.465 12.98 1.465 12.98 5 15 C1.94736336 15.98120464 0.05263664 15.98120464 -3 15 C-4.20577428 10.05632546 -3.6290678 6.79137588 -2 2 C-1.34 2 -0.68 2 0 2 C0 1.34 0 0.68 0 0 Z " fill="#F29554" transform="translate(379,162)"/>
<path d="M0 0 C0.33 -0.66 0.66 -1.32 1 -2 C1 -1.01 1 -0.02 1 1 C0.40316406 0.9278125 -0.19367188 0.855625 -0.80859375 0.78125 C-9.54727161 -0.1536457 -18.22515832 -0.09258332 -27 0 C-27 0.66 -27 1.32 -27 2 C-28.98 2 -30.96 2 -33 2 C-32 0 -32 0 -28.9375 -1.125 C-19.75258946 -3.21776443 -8.92025615 -2.97341872 0 0 Z " fill="#EF893F" transform="translate(425,125)"/>
<path d="M0 0 C0.33 0.66 0.66 1.32 1 2 C-0.29450686 5.88352057 -2.59770586 7.83938633 -6 10 C-8.95718868 10.47554596 -11.82725276 10.38011975 -14.8125 10.25 C-15.99489258 10.22292969 -15.99489258 10.22292969 -17.20117188 10.1953125 C-19.13464261 10.14844048 -21.06748285 10.0767041 -23 10 C-22.67 9.01 -22.34 8.02 -22 7 C-21.01 7.33 -20.02 7.66 -19 8 C-13.14186505 8.39054233 -9.25957756 7.93322595 -4 5 C-1.58855519 2.46900795 -1.58855519 2.46900795 0 0 Z " fill="#EB9250" transform="translate(306,171)"/>
<path d="M0 0 C1.32 0 2.64 0 4 0 C6.125 6.75 6.125 6.75 5 9 C5.99 9 6.98 9 8 9 C8 9.66 8 10.32 8 11 C7.01 11.495 7.01 11.495 6 12 C5.09656316 13.88263881 5.09656316 13.88263881 4.375 16.0625 C4.11460937 16.79597656 3.85421875 17.52945313 3.5859375 18.28515625 C3.39257812 18.85105469 3.19921875 19.41695312 3 20 C2.13596824 17.11363304 2.02190344 15.88829244 2.625 12.8125 C3.10494868 7.93302178 1.79898603 4.48221942 0 0 Z " fill="#ED8A47" transform="translate(305,151)"/>
<path d="M0 0 C0.51949219 0.42152344 1.03898437 0.84304687 1.57421875 1.27734375 C6.70146308 5.43428979 6.70146308 5.43428979 13 7 C8.56043724 9.29632557 5.94312365 10.20238143 1 9 C1.33 8.01 1.66 7.02 2 6 C1.34 6 0.68 6 0 6 C0 4.02 0 2.04 0 0 Z " fill="#F58E45" transform="translate(460,181)"/>
<path d="M0 0 C6.75 0.875 6.75 0.875 9 2 C14.46511604 2.41592919 18.96277658 2.28964701 24 0 C24.99 0.33 25.98 0.66 27 1 C20.38735001 4.80453835 14.46117796 4.67435907 7 4 C4.32148788 3.26139286 2.42492271 2.38567012 0 1 C0 0.67 0 0.34 0 0 Z " fill="#E98F4C" transform="translate(236,118)"/>
<path d="M0 0 C1.15699511 3.47098534 0.82954442 4.14733125 -0.43359375 7.44921875 C-0.75263672 8.29677734 -1.07167969 9.14433594 -1.40039062 10.01757812 C-1.91375977 11.33918945 -1.91375977 11.33918945 -2.4375 12.6875 C-2.77587891 13.58017578 -3.11425781 14.47285156 -3.46289062 15.39257812 C-4.30037307 17.59834174 -5.14632974 19.80046176 -6 22 C-6.33 22 -6.66 22 -7 22 C-7 19.36 -7 16.72 -7 14 C-6.34 13.67 -5.68 13.34 -5 13 C-4.61004898 11.13507598 -4.61004898 11.13507598 -4.5 9 C-4.34375 6.8125 -4.34375 6.8125 -4 5 C-3.34 4.67 -2.68 4.34 -2 4 C-0.86649466 1.98330173 -0.86649466 1.98330173 0 0 Z " fill="#EDA064" transform="translate(487,206)"/>
<path d="M0 0 C0.66 0.33 1.32 0.66 2 1 C1.34 1.433125 0.68 1.86625 0 2.3125 C-0.66 2.869375 -1.32 3.42625 -2 4 C-2 4.99 -2 5.98 -2 7 C-2.66 7 -3.32 7 -4 7 C-4 7.66 -4 8.32 -4 9 C-5.98 9.33 -7.96 9.66 -10 10 C-10 10.66 -10 11.32 -10 12 C-10.66 12 -11.32 12 -12 12 C-10.56394807 8.61181498 -8.79533421 6.6813402 -6 4.3125 C-5.29875 3.71050781 -4.5975 3.10851562 -3.875 2.48828125 C-2 1 -2 1 0 0 Z " fill="#EC8D48" transform="translate(390,127)"/>
<path d="M0 0 C0.33 0 0.66 0 1 0 C1.33 4.95 1.66 9.9 2 15 C2.66 15 3.32 15 4 15 C6.875 21.625 6.875 21.625 8 25 C7.34 25 6.68 25 6 25 C4.74609375 23.57421875 4.74609375 23.57421875 3.4375 21.6875 C3.00308594 21.07261719 2.56867188 20.45773438 2.12109375 19.82421875 C-0.35979324 15.78737476 -0.11790591 11.8770948 -0.0625 7.3125 C-0.05798828 6.61060547 -0.05347656 5.90871094 -0.04882812 5.18554688 C-0.03706927 3.45699462 -0.01913454 1.72848635 0 0 Z " fill="#EC9859" transform="translate(226,91)"/>
<path d="M0 0 C1.45880109 0.14107747 2.91703551 0.28802415 4.375 0.4375 C5.59316406 0.55931641 5.59316406 0.55931641 6.8359375 0.68359375 C9 1 9 1 11 2 C9.0848421 2.81604999 7.16781166 3.62770632 5.25 4.4375 C4.18265625 4.88996094 3.1153125 5.34242188 2.015625 5.80859375 C-0.3413841 6.73979553 -2.52992835 7.4784072 -5 8 C-5.33 7.34 -5.66 6.68 -6 6 C-4.02 5.01 -2.04 4.02 0 3 C0 2.01 0 1.02 0 0 Z " fill="#F39048" transform="translate(314,217)"/>
<path d="M0 0 C4.875 3.75 4.875 3.75 6 6 C6.45296092 12.35198686 6.13431857 17.99722901 4 24 C3.67 24 3.34 24 3 24 C2.90234375 17.84765625 2.90234375 17.84765625 3 16 C3.33 15.67 3.66 15.34 4 15 C4.07205511 13.31391034 4.08386068 11.62499341 4.0625 9.9375 C4.04896484 8.55884766 4.04896484 8.55884766 4.03515625 7.15234375 C4.02355469 6.44207031 4.01195312 5.73179688 4 5 C2.68 4.67 1.36 4.34 0 4 C0 2.68 0 1.36 0 0 Z " fill="#EF9C57" transform="translate(500,37)"/>
<path d="M0 0 C-0.33 1.32 -0.66 2.64 -1 4 C-1.66 4 -2.32 4 -3 4 C-3.33 5.32 -3.66 6.64 -4 8 C-4.33 6.68 -4.66 5.36 -5 4 C-6.98 4.33 -8.96 4.66 -11 5 C-4.83050847 -1.61016949 -4.83050847 -1.61016949 0 0 Z " fill="#ED9A59" transform="translate(359,239)"/>
<path d="M0 0 C6.75 1.875 6.75 1.875 9 3 C9 4.65 9 6.3 9 8 C9.66 8 10.32 8 11 8 C10.67 9.32 10.34 10.64 10 12 C9.278125 10.948125 8.55625 9.89625 7.8125 8.8125 C5.46773725 5.5164335 2.93928367 2.7713246 0 0 Z " fill="#F2A15F" transform="translate(465,158)"/>
<path d="M0 0 C0.99 0 1.98 0 3 0 C1.84826645 2.46800047 0.95216435 4.04783565 -1 6 C-4.625 5.625 -4.625 5.625 -8 5 C-7.34 3.68 -6.68 2.36 -6 1 C-4.7934375 1.0309375 -4.7934375 1.0309375 -3.5625 1.0625 C-1.06645115 1.29633621 -1.06645115 1.29633621 0 0 Z " fill="#F58838" transform="translate(265,112)"/>
<path d="M0 0 C-3.55765368 1.96708281 -5.94903778 2 -10 2 C-10.99 2.66 -11.98 3.32 -13 4 C-15.26171875 4.6328125 -15.26171875 4.6328125 -17.6875 5.125 C-18.49574219 5.29257813 -19.30398437 5.46015625 -20.13671875 5.6328125 C-20.75160156 5.75398438 -21.36648437 5.87515625 -22 6 C-15.66196225 -0.71418242 -8.72555171 -0.38684712 0 0 Z " fill="#EE8C45" transform="translate(256,75)"/>
<path d="M0 0 C1.30048841 2.60097682 1.56471422 5.13955062 2 8 C1.01 8.495 1.01 8.495 0 9 C-0.66 9.66 -1.32 10.32 -2 11 C-3.32 11 -4.64 11 -6 11 C-5.34 9.02 -4.68 7.04 -4 5 C-3.34 5 -2.68 5 -2 5 C-1.855625 4.360625 -1.71125 3.72125 -1.5625 3.0625 C-1 1 -1 1 0 0 Z " fill="#F38436" transform="translate(453,251)"/>
<path d="M0 0 C0 4.36198329 -2.18222136 6.07999902 -5 9.25 C-7 11 -7 11 -10 11 C-10.33 11.99 -10.66 12.98 -11 14 C-11.99 13.67 -12.98 13.34 -14 13 C-13.34 13 -12.68 13 -12 13 C-11.67 12.01 -11.34 11.02 -11 10 C-9.2578125 8.28125 -9.2578125 8.28125 -7.125 6.5 C-4.64584653 4.41421775 -2.2560424 2.32698713 0 0 Z " fill="#E99151" transform="translate(416,250)"/>
<path d="M0 0 C0.33 0.99 0.66 1.98 1 3 C1.66 3 2.32 3 3 3 C4.14744195 4.41742829 5.29278632 5.83662239 6.42578125 7.265625 C9.21351526 10.33697463 12.61438889 12.63091232 16 15 C15.67 15.66 15.34 16.32 15 17 C11.44297608 15.0238756 8.86252432 12.86252432 6 10 C5.01 9.67 4.02 9.34 3 9 C2.67 7.35 2.34 5.7 2 4 C1.34 4 0.68 4 0 4 C0 2.68 0 1.36 0 0 Z " fill="#EB9858" transform="translate(281,230)"/>
<path d="M0 0 C0.99 0 1.98 0 3 0 C2.67 1.32 2.34 2.64 2 4 C0.68 4.33 -0.64 4.66 -2 5 C-2.04125 5.556875 -2.0825 6.11375 -2.125 6.6875 C-3.46930374 10.24030274 -6.00974189 11.70958953 -9 14 C-9 10.06111246 -7.71256133 9.26454258 -5.0625 6.4375 C-2.19301173 3.45371254 -2.19301173 3.45371254 0 0 Z " fill="#EF9B5C" transform="translate(360,170)"/>
<path d="M0 0 C4.13141575 6.19712362 4.25452052 12.69649101 3.484375 19.93359375 C3 22 3 22 1 24 C1.33 18.72 1.66 13.44 2 8 C1.34 8 0.68 8 0 8 C0 5.36 0 2.72 0 0 Z " fill="#E6A06A" transform="translate(320,149)"/>
<path d="M0 0 C2.31 0 4.62 0 7 0 C9.21567946 4.30102484 9.23274001 7.33319854 8 12 C5.9375 13.4375 5.9375 13.4375 4 14 C4.33 13.0925 4.66 12.185 5 11.25 C6.19605723 7.92954193 6.19605723 7.92954193 6 4 C4.02 3.01 2.04 2.02 0 1 C0 0.67 0 0.34 0 0 Z " fill="#EC9657" transform="translate(484,43)"/>
<path d="M0 0 C2.24973447 -0.054138 4.49984383 -0.09285491 6.75 -0.125 C8.00296875 -0.14820313 9.2559375 -0.17140625 10.546875 -0.1953125 C13.72820492 -0.01537302 15.36521896 0.31001418 18 2 C14.38094593 3.80952703 10.09999801 2.54717813 6.1640625 2.15625 C3.42455404 2.02096563 1.56828299 2.13968846 -1 3 C-0.67 2.01 -0.34 1.02 0 0 Z " fill="#F18F49" transform="translate(287,131)"/>
<path d="M0 0 C1.32 0.33 2.64 0.66 4 1 C1.525 5.455 1.525 5.455 -1 10 C-1.66 10 -2.32 10 -3 10 C-3.66 11.32 -4.32 12.64 -5 14 C-4.125 9.25 -4.125 9.25 -3 7 C-2.34 7 -1.68 7 -1 7 C-1.20625 6.401875 -1.4125 5.80375 -1.625 5.1875 C-2 3 -2 3 0 0 Z " fill="#F19454" transform="translate(414,259)"/>
<path d="M0 0 C6.4295082 0.60655738 6.4295082 0.60655738 8.8125 2.25 C10.26625749 4.39237946 11.14378662 6.56308499 12 9 C9.08482708 7.92598892 7.22189824 7.22189824 5 5 C5.66 5 6.32 5 7 5 C6.67 4.34 6.34 3.68 6 3 C2.97065509 2.34227572 2.97065509 2.34227572 0 2 C0 1.34 0 0.68 0 0 Z " fill="#F2995B" transform="translate(388,177)"/>
<path d="M0 0 C4.43379675 2.21689838 6.46636932 4.77728219 9 9 C8.67 9.66 8.34 10.32 8 11 C5.48916886 9.74458443 5.12874554 8.49936512 4 6 C1.525 7.485 1.525 7.485 -1 9 C-0.67 6.03 -0.34 3.06 0 0 Z " fill="#F39451" transform="translate(311,138)"/>
<path d="M0 0 C0.66 1.32 1.32 2.64 2 4 C2.66 3.01 3.32 2.02 4 1 C4.66 1 5.32 1 6 1 C6 2.32 6 3.64 6 5 C5.34 5 4.68 5 4 5 C3.67 5.99 3.34 6.98 3 8 C0.9375 8.6875 0.9375 8.6875 -1 9 C-1.125 2.25 -1.125 2.25 0 0 Z " fill="#F78C3D" transform="translate(228,86)"/>
<path d="M0 0 C-1.64178265 4.77609498 -4.26546702 8.79382904 -7 13 C-7.33 11.68 -7.66 10.36 -8 9 C-7.34 9 -6.68 9 -6 9 C-6 7.68 -6 6.36 -6 5 C-5.34 5 -4.68 5 -4 5 C-4 3.68 -4 2.36 -4 1 C-2 0 -2 0 0 0 Z " fill="#F49B5A" transform="translate(463,262)"/>
<path d="M0 0 C5.66153846 1.47692308 5.66153846 1.47692308 7.375 4.125 C7.684375 5.053125 7.684375 5.053125 8 6 C6.02 6.99 6.02 6.99 4 8 C3.34 6.35 2.68 4.7 2 3 C1.34 3 0.68 3 0 3 C0 2.01 0 1.02 0 0 Z " fill="#F29451" transform="translate(417,190)"/>
<path d="M0 0 C1.60517097 0.08733576 3.20921662 0.19552224 4.8125 0.3125 C6.15248047 0.39951172 6.15248047 0.39951172 7.51953125 0.48828125 C10.34379918 1.0709255 11.33487329 1.6710354 13 4 C13 4.99 13 5.98 13 7 C12.34 7 11.68 7 11 7 C11 5.68 11 4.36 11 3 C10.37351562 3.01160156 9.74703125 3.02320313 9.1015625 3.03515625 C8.28429687 3.04417969 7.46703125 3.05320313 6.625 3.0625 C5.81289063 3.07410156 5.00078125 3.08570313 4.1640625 3.09765625 C2 3 2 3 0 2 C0 1.34 0 0.68 0 0 Z " fill="#E99A64" transform="translate(394,152)"/>
<path d="M0 0 C0.66 0 1.32 0 2 0 C2 1.65 2 3.3 2 5 C1.38125 5.226875 0.7625 5.45375 0.125 5.6875 C-2.61410209 7.37929835 -3.05024472 8.99244161 -4 12 C-4.33 12 -4.66 12 -5 12 C-4.67 9.36 -4.34 6.72 -4 4 C-3.34 4 -2.68 4 -2 4 C-1.34 2.68 -0.68 1.36 0 0 Z " fill="#EC9B5B" transform="translate(291,94)"/>
<path d="M0 0 C2.475 0.495 2.475 0.495 5 1 C5 1.66 5 2.32 5 3 C6.32 3 7.64 3 9 3 C9 3.66 9 4.32 9 5 C9.99 4.67 10.98 4.34 12 4 C12 4.66 12 5.32 12 6 C9.39417629 6.93065133 8.35801776 7.14917407 5.75 6.0625 C4.88375 5.5365625 4.88375 5.5365625 4 5 C4 4.34 4 3.68 4 3 C2.68 2.34 1.36 1.68 0 1 C0 0.67 0 0.34 0 0 Z " fill="#F3A363" transform="translate(267,184)"/>
<path d="M0 0 C1.35304209 4.05912626 0.15216503 5.77149591 -1.4375 9.6875 C-2.14712891 11.45673828 -2.14712891 11.45673828 -2.87109375 13.26171875 C-3.24363281 14.16535156 -3.61617188 15.06898438 -4 16 C-4.33 16 -4.66 16 -5 16 C-5.125 8.25 -5.125 8.25 -4 6 C-3.34 6 -2.68 6 -2 6 C-1.34 4.02 -0.68 2.04 0 0 Z " fill="#F19C59" transform="translate(481,118)"/>
<path d="M0 0 C2.79703683 1.64953454 4.6853471 2.92821356 5.625 6.12890625 C6.19805173 10.47693627 6.25859125 13.13315117 4 17 C2.73973202 14.47946405 3.08125555 13.1457902 3.4375 10.375 C3.53933594 9.55773437 3.64117187 8.74046875 3.74609375 7.8984375 C3.82988281 7.27195312 3.91367187 6.64546875 4 6 C3.01 5.67 2.02 5.34 1 5 C0.67 3.35 0.34 1.7 0 0 Z " fill="#F1904E" transform="translate(306,94)"/>
<path d="M0 0 C0 3.01490557 -0.51952735 4.86864114 -1.5 7.6875 C-1.91765625 8.89986328 -1.91765625 8.89986328 -2.34375 10.13671875 C-2.5603125 10.75160156 -2.776875 11.36648437 -3 12 C-3.33 12 -3.66 12 -4 12 C-4.33 8.7 -4.66 5.4 -5 2 C-3.35 1.34 -1.7 0.68 0 0 Z " fill="#F78C3B" transform="translate(495,80)"/>
<path d="M0 0 C5.80054339 1.52450179 9.67635324 2.65326391 13 8 C8.55495127 6.86694836 4.72230027 5.73698549 1 3 C0.67 2.01 0.34 1.02 0 0 Z " fill="#EFA467" transform="translate(305,270)"/>
<path d="M0 0 C0.66 0.66 1.32 1.32 2 2 C1.360625 2.78375 0.72125 3.5675 0.0625 4.375 C-1.98142313 6.79539281 -1.98142313 6.79539281 -3 9 C-2.01 9.33 -1.02 9.66 0 10 C0 10.66 0 11.32 0 12 C-2.39012264 11.07479124 -3.71424753 10.47065113 -5.0625 8.25 C-4.9586362 4.51090325 -2.49204823 2.67439322 0 0 Z " fill="#F48C43" transform="translate(420,199)"/>
<path d="M0 0 C8.19256018 0.35010941 8.19256018 0.35010941 11.5625 3.0625 C12.036875 3.701875 12.51125 4.34125 13 5 C7.28758534 4.61271765 4.26311718 4.12989477 0 0 Z " fill="#EF9C5D" transform="translate(430,186)"/>
<path d="M0 0 C1.32 0.33 2.64 0.66 4 1 C4.3367697 5.93928888 4.16130459 6.78492722 1 11 C0.67 7.37 0.34 3.74 0 0 Z " fill="#F88738" transform="translate(472,130)"/>
<path d="M0 0 C0.33 1.32 0.66 2.64 1 4 C-1.03495023 6.97974855 -3.38774841 9.51836099 -6 12 C-6.66 11.67 -7.32 11.34 -8 11 C-5.36 7.37 -2.72 3.74 0 0 Z " fill="#F18A41" transform="translate(446,263)"/>
<path d="M0 0 C0.99 0.33 1.98 0.66 3 1 C3 1.66 3 2.32 3 3 C4.65 3.33 6.3 3.66 8 4 C4.86501708 5.85776765 2.62528568 6.20140476 -1 6 C-1.33 5.34 -1.66 4.68 -2 4 C-1.34 4 -0.68 4 0 4 C0 2.68 0 1.36 0 0 Z " fill="#F3863C" transform="translate(450,208)"/>
<path d="M0 0 C0.99 0 1.98 0 3 0 C3.33 1.32 3.66 2.64 4 4 C2.68 3.67 1.36 3.34 0 3 C-0.66 4.32 -1.32 5.64 -2 7 C-2.66 7 -3.32 7 -4 7 C-4 7.66 -4 8.32 -4 9 C-4.66 9 -5.32 9 -6 9 C-6 7.68 -6 6.36 -6 5 C-4.68 5 -3.36 5 -2 5 C-1.855625 4.360625 -1.71125 3.72125 -1.5625 3.0625 C-1 1 -1 1 0 0 Z " fill="#F0A16A" transform="translate(367,183)"/>
<path d="M0 0 C0.66 0.33 1.32 0.66 2 1 C1.67 1.680625 1.34 2.36125 1 3.0625 C-0.58671246 7.72346785 -0.5007394 12.31018938 1 17 C0.34 17 -0.32 17 -1 17 C-1.41917468 15.10919048 -1.80944146 13.21195776 -2.1875 11.3125 C-2.40792969 10.25675781 -2.62835938 9.20101562 -2.85546875 8.11328125 C-3.0265318 4.42849066 -2.15389633 2.92430762 0 0 Z " fill="#F18F4F" transform="translate(274,153)"/>
<path d="M0 0 C5.23175837 -0.38281159 8.37802694 0.78145293 13 3 C13 3.66 13 4.32 13 5 C14.32 5.33 15.64 5.66 17 6 C16.01 6.495 16.01 6.495 15 7 C12.40267775 6.09239638 9.90549025 5.12932108 7.375 4.0625 C6.31539063 3.62647461 6.31539063 3.62647461 5.234375 3.18164062 C3.48672427 2.46132512 1.74298085 1.73154306 0 1 C0 0.67 0 0.34 0 0 Z " fill="#EDA467" transform="translate(436,146)"/>
<path d="M0 0 C4.97093824 0.41153737 9.44508386 0.79600832 14 3 C14 3.66 14 4.32 14 5 C12.41439607 4.74279326 10.83154076 4.46861201 9.25 4.1875 C8.36828125 4.03667969 7.4865625 3.88585937 6.578125 3.73046875 C3.8089089 2.94585752 2.1740599 1.85404641 0 0 Z " fill="#F0A76C" transform="translate(348,294)"/>
<path d="M0 0 C0.99 0.33 1.98 0.66 3 1 C2.1875 3.4375 2.1875 3.4375 1 6 C0.01 6.33 -0.98 6.66 -2 7 C-2.33 7.99 -2.66 8.98 -3 10 C-3.33 8.68 -3.66 7.36 -4 6 C-3.34 6 -2.68 6 -2 6 C-1.34 4.02 -0.68 2.04 0 0 Z " fill="#F5AA73" transform="translate(445,283)"/>
<path d="M0 0 C4.29 1.65 8.58 3.3 13 5 C13 5.33 13 5.66 13 6 C6.25 6.125 6.25 6.125 4 5 C4 4.34 4 3.68 4 3 C2.68 2.67 1.36 2.34 0 2 C0 1.34 0 0.68 0 0 Z " fill="#E8985C" transform="translate(343,276)"/>
<path d="M0 0 C0.33 0.99 0.66 1.98 1 3 C-1 5 -1 5 -3.3828125 5.1953125 C-4.28773438 5.17210938 -5.19265625 5.14890625 -6.125 5.125 C-7.49011719 5.09792969 -7.49011719 5.09792969 -8.8828125 5.0703125 C-9.58148438 5.04710938 -10.28015625 5.02390625 -11 5 C-11.33 4.34 -11.66 3.68 -12 3 C-11.38511719 2.95101562 -10.77023438 2.90203125 -10.13671875 2.8515625 C-9.32847656 2.77679688 -8.52023438 2.70203125 -7.6875 2.625 C-6.88699219 2.55539063 -6.08648437 2.48578125 -5.26171875 2.4140625 C-2.72775559 2.10435574 -2.72775559 2.10435574 0 0 Z " fill="#EB9A5A" transform="translate(257,104)"/>
<path d="M0 0 C2.95409701 1.37154504 5.44008376 2.98863724 8 5 C7.67 5.66 7.34 6.32 7 7 C5.33333333 7 3.66666667 7 2 7 C1.34 4.69 0.68 2.38 0 0 Z " fill="#F1914C" transform="translate(297,247)"/>
<path d="M0 0 C1.10844919 3.32534757 0.84454356 5.62182575 0 9 C-0.66 9 -1.32 9 -2 9 C-2 9.99 -2 10.98 -2 12 C-2.99 12 -3.98 12 -5 12 C-3.41037341 7.96479403 -1.71767682 3.98188718 0 0 Z " fill="#F39952" transform="translate(461,234)"/>
<path d="M0 0 C0.33 0 0.66 0 1 0 C1 1.98 1 3.96 1 6 C0.34 6 -0.32 6 -1 6 C-0.938125 7.11375 -0.87625 8.2275 -0.8125 9.375 C-0.9053125 11.169375 -0.9053125 11.169375 -1 13 C-1.99 13.66 -2.98 14.32 -4 15 C-3.43179252 9.54520815 -2.05362055 5.08940744 0 0 Z " fill="#EC8D49" transform="translate(486,64)"/>
<path d="M0 0 C0.33 0 0.66 0 1 0 C1.70731186 4.66825827 -0.07722471 7.03280231 -2.7109375 10.64453125 C-3.13632812 11.09183594 -3.56171875 11.53914063 -4 12 C-4.66 12 -5.32 12 -6 12 C-4.43358249 7.69235185 -2.31663844 3.93828536 0 0 Z " fill="#ED9755" transform="translate(458,61)"/>
<path d="M0 0 C2.97 0 5.94 0 9 0 C9.33 0.99 9.66 1.98 10 3 C10.99 3.33 11.98 3.66 13 4 C12.34 4.66 11.68 5.32 11 6 C10.505 5.319375 10.505 5.319375 10 4.625 C6.9622157 2.15680026 3.80812939 1.81156856 0 1 C0 0.67 0 0.34 0 0 Z " fill="#F09C5E" transform="translate(388,165)"/>
<path d="M0 0 C2.31 0.66 4.62 1.32 7 2 C7 2.66 7 3.32 7 4 C8.65 4 10.3 4 12 4 C12.33 4.99 12.66 5.98 13 7 C3.40546697 4.29384966 3.40546697 4.29384966 0 0 Z " fill="#EF8B45" transform="translate(452,151)"/>
<path d="M0 0 C1.9375 0.375 1.9375 0.375 4 1 C4.33 1.66 4.66 2.32 5 3 C7.02463255 3.65213292 7.02463255 3.65213292 9 4 C9.33 5.98 9.66 7.96 10 10 C9.01 9.34 8.02 8.68 7 8 C7 7.34 7 6.68 7 6 C5.68 5.34 4.36 4.68 3 4 C3 3.34 3 2.68 3 2 C2.01 1.67 1.02 1.34 0 1 C0 0.67 0 0.34 0 0 Z " fill="#F0A16B" transform="translate(266,236)"/>
<path d="M0 0 C1.98 0 3.96 0 6 0 C6 1.32 6 2.64 6 4 C4.02 4 2.04 4 0 4 C0 2.68 0 1.36 0 0 Z " fill="#FD7E20" transform="translate(460,190)"/>
<path d="M0 0 C0.66 0 1.32 0 2 0 C2.38909985 1.45463481 2.76088029 2.91391207 3.125 4.375 C3.33382813 5.18710938 3.54265625 5.99921875 3.7578125 6.8359375 C3.83773438 7.55007812 3.91765625 8.26421875 4 9 C3.34 9.66 2.68 10.32 2 11 C1.34 11 0.68 11 0 11 C0 7.37 0 3.74 0 0 Z " fill="#F38D46" transform="translate(258,93)"/>
<path d="M0 0 C4.87685861 1.35468295 6.48592381 3.71675909 9 8 C7.02 8 5.04 8 3 8 C3 6.35 3 4.7 3 3 C2.01 2.67 1.02 2.34 0 2 C0 1.34 0 0.68 0 0 Z " fill="#F3893C" transform="translate(260,78)"/>
<path d="M0 0 C2.97 0.33 5.94 0.66 9 1 C9 1.99 9 2.98 9 4 C9.99 4 10.98 4 12 4 C11.67 4.66 11.34 5.32 11 6 C7.37 4.35 3.74 2.7 0 1 C0 0.67 0 0.34 0 0 Z " fill="#F0A46B" transform="translate(335,288)"/>
<path d="M0 0 C-1.03491649 2.82249951 -1.69915265 3.83374226 -4.375 5.3125 C-7.16653942 6.04361747 -8.30861211 5.79596365 -11 5 C-9.54462432 4.16151196 -8.08559627 3.32936066 -6.625 2.5 C-5.81289063 2.0359375 -5.00078125 1.571875 -4.1640625 1.09375 C-2 0 -2 0 0 0 Z " fill="#F0863A" transform="translate(346,245)"/>
<path d="M0 0 C0.33 0 0.66 0 1 0 C1 2.97 1 5.94 1 9 C0.01 9 -0.98 9 -2 9 C-1.125 1.125 -1.125 1.125 0 0 Z " fill="#FE7E20" transform="translate(263,159)"/>
<path d="M0 0 C0.33 0 0.66 0 1 0 C1.6875 2.8125 1.6875 2.8125 2 6 C0.75 7.875 0.75 7.875 -1 9 C-1.99 9 -2.98 9 -4 9 C-3.71125 8.443125 -3.4225 7.88625 -3.125 7.3125 C-1.9586747 4.91505355 -0.9660119 2.48403061 0 0 Z " fill="#F09656" transform="translate(451,73)"/>
<path d="M0 0 C0.33 0.66 0.66 1.32 1 2 C-0.21484375 4.3828125 -0.21484375 4.3828125 -1.9375 7.125 C-2.50339844 8.03507812 -3.06929688 8.94515625 -3.65234375 9.8828125 C-4.09707031 10.58148438 -4.54179687 11.28015625 -5 12 C-6 9 -6 9 -5.29296875 6.9921875 C-4.92816406 6.29351562 -4.56335938 5.59484375 -4.1875 4.875 C-3.83042969 4.17117187 -3.47335937 3.46734375 -3.10546875 2.7421875 C-2 1 -2 1 0 0 Z " fill="#F09251" transform="translate(477,54)"/>
<path d="M0 0 C0 0.99 0 1.98 0 3 C-5.94 3.495 -5.94 3.495 -12 4 C-8.14070855 1.42713903 -4.66785662 0 0 0 Z " fill="#EDA971" transform="translate(379,278)"/>
<path d="M0 0 C2.97 0.495 2.97 0.495 6 1 C6.33 2.65 6.66 4.3 7 6 C5.0625 5.1875 5.0625 5.1875 3 4 C2.67 3.01 2.34 2.02 2 1 C1.34 0.67 0.68 0.34 0 0 Z " fill="#EF995C" transform="translate(280,250)"/>
<path d="M0 0 C-2.85478326 1.90318884 -4.41941308 2.4619099 -7.6875 3.125 C-8.49574219 3.29257813 -9.30398438 3.46015625 -10.13671875 3.6328125 C-10.75160156 3.75398437 -11.36648438 3.87515625 -12 4 C-12 3.34 -12 2.68 -12 2 C-7.8794254 0.00214565 -4.54805635 -0.17835515 0 0 Z " fill="#F4A970" transform="translate(308,225)"/>
<path d="M0 0 C-0.25 1.875 -0.25 1.875 -1 4 C-3.58152302 5.72101535 -4.84918025 6 -8 6 C-8 5.34 -8 4.68 -8 4 C-2.58823529 0 -2.58823529 0 0 0 Z " fill="#EE9853" transform="translate(341,192)"/>
<path d="M0 0 C0.33 0 0.66 0 1 0 C1 1.65 1 3.3 1 5 C0.01 5 -0.98 5 -2 5 C-2.12375 5.804375 -2.2475 6.60875 -2.375 7.4375 C-2.58125 8.283125 -2.7875 9.12875 -3 10 C-3.99 10.495 -3.99 10.495 -5 11 C-3.93051945 6.72207778 -3.02504439 3.28809173 0 0 Z " fill="#F09859" transform="translate(377,139)"/>
<path d="M0 0 C0.98120464 3.05263664 0.98120464 4.94736336 0 8 C-1.32 8.33 -2.64 8.66 -4 9 C-2.94124926 5.59687262 -1.99097846 2.98646769 0 0 Z " fill="#F09D5A" transform="translate(435,104)"/>
<path d="M0 0 C0.33 0.66 0.66 1.32 1 2 C3.02463255 2.65213292 3.02463255 2.65213292 5 3 C5.33 4.32 5.66 5.64 6 7 C3 7 3 7 1.3125 5.75 C0 4 0 4 0 0 Z " fill="#EE8F4B" transform="translate(287,106)"/>
<path d="M0 0 C0.99 0 1.98 0 3 0 C2.01 2.97 1.02 5.94 0 9 C-0.33 9 -0.66 9 -1 9 C-1.625 5.625 -1.625 5.625 -2 2 C-1.34 1.34 -0.68 0.68 0 0 Z " fill="#F58638" transform="translate(468,66)"/>
<path d="M0 0 C0.93065133 2.60582371 1.14917407 3.64198224 0.0625 6.25 C-0.4634375 7.11625 -0.4634375 7.11625 -1 8 C-1.66 7.34 -2.32 6.68 -3 6 C-3.99 6.495 -3.99 6.495 -5 7 C-3.70700306 4.11562221 -2.34058637 2.12780579 0 0 Z " fill="#F59D58" transform="translate(436,276)"/>
<path d="M0 0 C0.99 0.33 1.98 0.66 3 1 C1.68 2.65 0.36 4.3 -1 6 C-0.34 6.33 0.32 6.66 1 7 C-0.32 7 -1.64 7 -3 7 C-3.1875 4.625 -3.1875 4.625 -3 2 C-2.01 1.34 -1.02 0.68 0 0 Z " fill="#F29C62" transform="translate(335,266)"/>
<path d="M0 0 C2.97 0 5.94 0 9 0 C9 0.66 9 1.32 9 2 C9.66 2 10.32 2 11 2 C11.33 3.32 11.66 4.64 12 6 C8.125 4.25 8.125 4.25 7 2 C4.67843403 1.59270772 2.3431213 1.25561323 0 1 C0 0.67 0 0.34 0 0 Z " fill="#EC904E" transform="translate(380,191)"/>
<path d="M0 0 C1 2 1 2 0.3125 5.5 C-1 9 -1 9 -3.125 10.4375 C-3.74375 10.623125 -4.3625 10.80875 -5 11 C-3.55049545 7.2089881 -1.84827434 3.6125362 0 0 Z " fill="#EEA36D" transform="translate(371,150)"/>
<path d="M0 0 C0.99 0.33 1.98 0.66 3 1 C1.35 3.64 -0.3 6.28 -2 9 C-2.66 8.67 -3.32 8.34 -4 8 C-2.68 5.36 -1.36 2.72 0 0 Z " fill="#EF8E4B" transform="translate(473,102)"/>
<path d="M0 0 C4.29 0 8.58 0 13 0 C12.67 0.66 12.34 1.32 12 2 C10.0390625 2.51953125 10.0390625 2.51953125 7.625 2.8125 C6.43777344 2.97685547 6.43777344 2.97685547 5.2265625 3.14453125 C3 3 3 3 0 0 Z " fill="#E88640" transform="translate(354,282)"/>
<path d="M0 0 C1.32 0 2.64 0 4 0 C3.67 0.99 3.34 1.98 3 3 C2.34 3 1.68 3 1 3 C0.34 4.32 -0.32 5.64 -1 7 C-1.33 6.34 -1.66 5.68 -2 5 C-1.0625 2.375 -1.0625 2.375 0 0 Z " fill="#F29F63" transform="translate(399,280)"/>
<path d="M0 0 C4.29 0 8.58 0 13 0 C12.67 0.66 12.34 1.32 12 2 C7.36463727 3.2935896 4.42109613 2.78949129 0 1 C0 0.67 0 0.34 0 0 Z " fill="#F09859" transform="translate(435,203)"/>
<path d="M0 0 C0.66 0.33 1.32 0.66 2 1 C1.67 1.66 1.34 2.32 1 3 C0.34 3 -0.32 3 -1 3 C-1 3.66 -1 4.32 -1 5 C-2.65 5 -4.3 5 -6 5 C-6 4.34 -6 3.68 -6 3 C-4.03533587 1.93224776 -2.03144641 0.93446535 0 0 Z " fill="#F09958" transform="translate(331,198)"/>
<path d="M0 0 C1.32 0.33 2.64 0.66 4 1 C0.535 3.97 0.535 3.97 -3 7 C-3.33 6.01 -3.66 5.02 -4 4 C-3.01 4 -2.02 4 -1 4 C-0.67 2.68 -0.34 1.36 0 0 Z " fill="#F29251" transform="translate(353,196)"/>
<path d="M0 0 C-3.28463659 2.18975773 -6.20696275 2.99806563 -10 4 C-10.33 3.34 -10.66 2.68 -11 2 C-7.36576791 -0.32590854 -4.22911669 -0.16265833 0 0 Z " fill="#F29B5C" transform="translate(319,221)"/>
<path d="M0 0 C0.33 0.66 0.66 1.32 1 2 C2.32 2 3.64 2 5 2 C5 2.66 5 3.32 5 4 C2.69 4.33 0.38 4.66 -2 5 C-1.34 3.35 -0.68 1.7 0 0 Z " fill="#F28334" transform="translate(367,160)"/>
<path d="M0 0 C1.32 0 2.64 0 4 0 C4 2.97 4 5.94 4 9 C1.3144406 6.3144406 0.93950026 3.62378672 0 0 Z " fill="#EEA067" transform="translate(305,151)"/>
<path d="M0 0 C1.4606285 2.64738916 2 3.89448334 2 7 C0.68 7 -0.64 7 -2 7 C-1.125 1.125 -1.125 1.125 0 0 Z " fill="#F08F49" transform="translate(462,131)"/>
<path d="M0 0 C1.48199902 0.44909061 2.96055236 0.90956564 4.4375 1.375 C5.26121094 1.63023437 6.08492188 1.88546875 6.93359375 2.1484375 C9 3 9 3 10 5 C7.69 4.67 5.38 4.34 3 4 C3 3.34 3 2.68 3 2 C2.01 1.67 1.02 1.34 0 1 C0 0.67 0 0.34 0 0 Z " fill="#F3AB75" transform="translate(438,131)"/>
<path d="M0 0 C0.93423645 3.01031744 1.04449911 3.86650268 0 7 C-0.66 7 -1.32 7 -2 7 C-2 7.66 -2 8.32 -2 9 C-2.66 9 -3.32 9 -4 9 C-3.34 7.02 -2.68 5.04 -2 3 C-1.34 3 -0.68 3 0 3 C0 2.01 0 1.02 0 0 Z " fill="#EFA468" transform="translate(451,253)"/>
<path d="M0 0 C0.2475 0.639375 0.495 1.27875 0.75 1.9375 C1.81562433 4.18741541 1.81562433 4.18741541 4.125 4.75 C4.74375 4.8325 5.3625 4.915 6 5 C5.67 5.66 5.34 6.32 5 7 C3.68 6.67 2.36 6.34 1 6 C0.67 4.02 0.34 2.04 0 0 Z " fill="#F49B60" transform="translate(425,196)"/>
<path d="M0 0 C3 2 3 2 3.6875 5.125 C3.8421875 6.548125 3.8421875 6.548125 4 8 C2.68 8 1.36 8 0 8 C0 5.36 0 2.72 0 0 Z " fill="#F2934D" transform="translate(485,158)"/>
<path d="M0 0 C2 2 2 2 2 5 C-3.75 3.25 -3.75 3.25 -6 1 C-3.03 1.495 -3.03 1.495 0 2 C0 1.34 0 0.68 0 0 Z " fill="#EF9759" transform="translate(430,139)"/>
<path d="M0 0 C0.33 0.99 0.66 1.98 1 3 C-0.875 6.1875 -0.875 6.1875 -3 9 C-3.33 9 -3.66 9 -4 9 C-4 7.02 -4 5.04 -4 3 C-3.01 3 -2.02 3 -1 3 C-0.67 2.01 -0.34 1.02 0 0 Z " fill="#F4A567" transform="translate(441,122)"/>
<path d="M0 0 C4.8 3.44615385 4.8 3.44615385 5.8125 6.25 C5.874375 6.8275 5.93625 7.405 6 8 C5.34 8 4.68 8 4 8 C4 7.01 4 6.02 4 5 C2.68 4.67 1.36 4.34 0 4 C0 2.68 0 1.36 0 0 Z " fill="#F1A065" transform="translate(500,37)"/>
<path d="M0 0 C0.99 0 1.98 0 3 0 C1.63016497 3.16115776 1.0109362 3.9927092 -2 6 C-1.125 1.125 -1.125 1.125 0 0 Z " fill="#F0A773" transform="translate(429,283)"/>
<path d="M0 0 C-0.33 2.31 -0.66 4.62 -1 7 C-1.33 5.68 -1.66 4.36 -2 3 C-3.32 3.33 -4.64 3.66 -6 4 C-2.25 0 -2.25 0 0 0 Z " fill="#EBB078" transform="translate(426,242)"/>
<path d="M0 0 C-2.3125 1.5625 -2.3125 1.5625 -5 3 C-5.99 2.67 -6.98 2.34 -8 2 C-6.14210462 -1.71579076 -3.44525918 -1.06921837 0 0 Z " fill="#EFA86F" transform="translate(340,211)"/>
<path d="M0 0 C1.98 0 3.96 0 6 0 C6.66 1.32 7.32 2.64 8 4 C5.64828869 3.40138258 3.3140622 2.73075648 1 2 C0.67 1.34 0.34 0.68 0 0 Z " fill="#F0A26B" transform="translate(371,187)"/>
<path d="M0 0 C2.35171131 0.59861742 4.6859378 1.26924352 7 2 C7.33 2.66 7.66 3.32 8 4 C5.36 3.67 2.72 3.34 0 3 C0 2.01 0 1.02 0 0 Z " fill="#F2A166" transform="translate(376,174)"/>
<path d="M0 0 C3.14737182 0.69941596 6.02588876 1.76078698 9 3 C5.67465243 4.10844919 3.37817425 3.84454356 0 3 C0 2.01 0 1.02 0 0 Z " fill="#F08E4A" transform="translate(410,161)"/>
<path d="M0 0 C-2.8125 1.5625 -2.8125 1.5625 -6 3 C-6.99 2.67 -7.98 2.34 -9 2 C-5.96271914 -1.03728086 -4.06215635 -1.35405212 0 0 Z " fill="#F2A772" transform="translate(263,119)"/>
</svg>
